<?xml version="1.0" encoding="utf-8"?>
<!-- Generator: Adobe Illustrator 24.3.0, SVG Export Plug-In . SVG Version: 6.00 Build 0)  -->
<svg version="1.1" id="Laag_1" xmlns="http://www.w3.org/2000/svg" xmlns:xlink="http://www.w3.org/1999/xlink" x="0px" y="0px"
	 viewBox="0 0 1087.76 500" style="enable-background:new 0 0 1087.76 500;" xml:space="preserve">
<style type="text/css">
	.st0{fill:#CF6AA7;}
	.st1{fill:#668DB7;}
</style>
<g>
	<path class="st0" d="M260.91,421.27c-4.33-1.9-8.19-3.09-12.39-4.01c-4.13-0.9-8.27-1.57-12.43-1.94
		c-4.17-0.25-8.32-0.48-12.45-0.2c-2.02,0.09-4.04,0.26-6.05,0.49c1.41-4.45,2.64-8.95,3.46-13.56c1.23-6.3,1.77-12.73,1.89-19.17
		c0.02-3.22-0.17-6.45-0.51-9.68c-0.33-3.29-0.78-6.31-1.67-9.9l-1.08-4.37l-4.21,0.62c-6.09,0.9-11.08,2.71-16.29,4.73
		c-4.67,1.84-9.09,4.17-13.35,6.71c0.25-3.8-0.15-7.54-0.91-11.21c-0.57-2.44-1.28-4.87-2.25-7.22c-0.98-2.41-1.98-4.53-3.65-7.05
		l-2.72-4.1l-4.53,2.28c-2.99,1.51-5.12,3.05-7.4,4.85c-2.2,1.79-4.23,3.74-6.07,5.87c-1.82,2.14-3.5,4.4-4.9,6.86
		c-0.26,0.47-0.48,0.96-0.72,1.44c-0.33-0.53-0.63-1.07-0.97-1.6c-1.93-2.95-3.96-5.84-6.2-8.62c-2.28-2.83-4.47-5.35-7.5-8.14
		l-3.74-3.45l-3.77,3.45c-3.04,2.78-5.22,5.31-7.51,8.13c-2.23,2.77-4.26,5.67-6.2,8.62c-0.46,0.73-0.84,1.5-1.29,2.23
		c-0.23-0.44-0.43-0.9-0.67-1.33c-1.37-2.42-3.01-4.64-4.8-6.74c-1.81-2.09-3.8-4.01-5.97-5.75c-2.24-1.76-4.33-3.27-7.28-4.74
		l-4.54-2.26l-2.71,4.08c-1.61,2.43-2.55,4.47-3.5,6.79c-0.92,2.26-1.61,4.59-2.15,6.94c-0.72,3.48-1.1,7.04-0.87,10.66
		c-4.29-2.56-8.75-4.9-13.46-6.76c-5.18-2-10.13-3.8-16.18-4.69l-4.2-0.62l-1.08,4.37c-0.88,3.58-1.33,6.58-1.66,9.86
		c-0.34,3.21-0.53,6.43-0.51,9.63c0.11,6.41,0.65,12.81,1.86,19.08c0.76,4.29,1.88,8.49,3.15,12.65c-2.01-0.24-4.02-0.41-6.05-0.5
		c-4.13-0.28-8.27-0.04-12.44,0.2c-4.15,0.37-8.29,1.04-12.42,1.94c-4.19,0.93-8.05,2.11-12.38,4.01l-3.4,1.49l1.31,3.93
		c2.21,6.67,5.29,12.1,8.82,17.59c3.52,5.41,7.5,10.54,12.06,15.09c8.84,9.39,19.42,17.04,30.79,22.87c2.9,1.34,5.75,2.78,8.68,4.03
		l8.89,3.44c6.05,1.93,12.21,3.63,18.57,4.56c6.35,0.84,12.92,1.19,19.32-0.16c6.17-1.14,12.15-4.19,16.04-8.84
		c1.87,0.07,3.73-0.07,5.52-0.48c-6.76,0.33-13.07-2.75-17.38-7.25c-4.37-4.55-6.93-10.56-8.32-16.77c-0.48-1.5-0.7-3.11-0.96-4.69
		c-0.23-1.59-0.59-3.14-0.72-4.75c-0.14-3.25-0.61-6.41-0.5-9.68c-0.05-6.49,0.24-13,0.99-19.43c1.6-12.84,4.69-25.42,9.86-37.1
		c2.65-5.79,5.54-11.47,9.05-16.74c1.77-2.62,3.61-5.18,5.61-7.59c0.75-0.92,1.56-1.85,2.38-2.75c0.82,0.9,1.63,1.82,2.37,2.74
		c2,2.41,3.84,4.97,5.61,7.59c3.51,5.27,6.39,10.95,9.06,16.73c5.16,11.68,8.27,24.26,9.86,37.1c0.74,6.44,1.02,12.94,0.99,19.43
		c0.11,3.27-0.36,6.43-0.5,9.68c-0.13,1.61-0.49,3.16-0.72,4.75c-0.26,1.58-0.48,3.19-0.95,4.69c-1.39,6.21-3.95,12.22-8.32,16.77
		c-4.31,4.49-10.63,7.58-17.39,7.24c1.44,0.32,2.93,0.47,4.43,0.48c3.64,5,9.65,8.43,15.94,9.77c6.44,1.56,13.1,1.3,19.53,0.53
		c6.44-0.87,12.69-2.53,18.8-4.46c3.01-1.09,5.98-2.3,8.98-3.45c2.99-1.16,5.84-2.68,8.78-4.01c11.48-5.85,22.22-13.47,31.16-22.94
		c4.62-4.57,8.63-9.76,12.2-15.21c3.58-5.54,6.68-11.02,8.91-17.74l1.31-3.92L260.91,421.27z M88.07,369.27
		c1.38-1.87,2.68-3.72,3.91-5.56l3.6-5.43c0.14-0.21,0.28-0.42,0.42-0.63c0.55,0.33,1.09,0.66,1.62,0.99
		c2.08,1.26,4.18,2.55,6.36,3.81c2.14,1.3,4.39,2.54,6.7,3.79c0.81,0.4,1.63,0.83,2.45,1.25c-2.21,4-4.27,8.08-6.01,12.29
		c-1.05,2.72-2,5.48-2.88,8.26c-2.26-2.4-4.6-4.74-7.13-6.91c-3.61-3.14-7.51-5.96-11.57-8.57
		C86.42,371.45,87.25,370.35,88.07,369.27z M128.45,484.16c-5.02,3.17-10.67,4.37-16.23,4.38c-5.83-0.03-11.63-1.15-17.27-2.81
		c-5.65-1.64-11.21-3.74-16.63-6.19l-8.06-3.78c-2.64-1.34-5.18-2.85-7.77-4.26c-10.2-5.9-19.69-12.89-27.97-21.14
		c-2.1-2.03-4.06-4.19-5.96-6.41c-1.91-2.2-3.83-4.41-5.54-6.77c-2.63-3.51-5.14-7.38-7.21-11.13c2.06-0.95,4.26-1.85,6.39-2.7
		c3.63-1.41,7.39-2.58,11.22-3.6c5.87-1.6,11.9-2.71,18.06-3.57c2.4,7.44,5.47,14.64,9.31,21.39l4.9,8.11
		c1.79,2.59,3.63,5.15,5.5,7.67c3.87,4.94,7.93,9.78,12.67,14.02c4.68,4.26,9.86,8.15,15.76,10.74c5.5,2.52,11.84,3.64,17.59,2.44
		c2.16,1.33,4.48,2.35,6.88,3C125.53,483.9,126.99,484.08,128.45,484.16z M114.72,478.84c0.61,0.48,1.25,0.92,1.9,1.34
		c-5.56-0.55-10.59-2.74-14.94-5.78c-4.76-3.33-8.86-7.54-12.62-12.02c-3.67-4.56-7.16-9.31-10.24-14.35
		c-1.47-2.56-2.98-5.09-4.54-7.58l-4.06-7.8c-5.07-10.54-8.92-21.57-11.14-32.92c-1.22-5.66-1.82-11.42-2.04-17.17
		c-0.21-4.1-0.18-8.43,0.19-12.44c3.15,0.52,6.47,1.24,9.59,2.15c4.81,1.43,9.63,3.04,14.32,5.06c4.62,2.13,9.37,4.2,13.8,6.88
		c3,1.63,5.91,3.47,8.81,5.35c-3.06,10.06-4.94,20.42-5.39,30.83c-0.29,6.89-0.26,13.78,0.44,20.64c0.21,3.43,1.02,6.86,1.51,10.26
		c0.31,1.7,0.85,3.39,1.26,5.08c0.45,1.68,0.82,3.38,1.55,5C105.47,467.9,109.06,474.42,114.72,478.84z M157.57,365.46
		c2.34-1.3,4.62-2.59,6.8-3.93l6.47-3.91c0.55-0.34,1.13-0.69,1.7-1.04c0.19,0.29,0.37,0.58,0.56,0.85l3.68,5.7
		c1.26,1.93,2.58,3.87,3.97,5.84c0.86,1.16,1.72,2.35,2.63,3.53c-4.17,2.68-8.18,5.58-11.88,8.81c-2.53,2.18-4.88,4.54-7.15,6.97
		c-0.9-2.86-1.87-5.7-2.96-8.5c-1.82-4.46-3.94-8.8-6.31-13.02C155.91,366.33,156.74,365.88,157.57,365.46z M165.38,461.36
		c0.73-1.62,1.1-3.32,1.55-5c0.41-1.69,0.96-3.37,1.26-5.08c0.49-3.4,1.3-6.84,1.51-10.26c0.71-6.86,0.73-13.75,0.44-20.64
		c-0.45-10.31-2.3-20.6-5.31-30.58c2.91-1.9,5.83-3.76,8.85-5.42c4.46-2.71,9.23-4.81,13.88-6.96c4.72-2.04,9.57-3.68,14.41-5.13
		c3.15-0.93,6.5-1.66,9.68-2.18c0.37,4.04,0.41,8.4,0.19,12.52c-0.23,5.77-0.82,11.57-2.07,17.25
		c-2.23,11.41-6.16,22.47-11.28,33.06c-5.2,10.51-11.56,20.74-19.03,29.8c-3.8,4.46-7.95,8.67-12.78,11.93
		c-4.29,2.91-9.25,4.94-14.67,5.41c0.61-0.4,1.21-0.81,1.78-1.26C159.45,474.42,163.04,467.89,165.38,461.36z M245.48,438.41
		c-1.75,2.36-3.65,4.62-5.61,6.82l-2.92,3.31l-3.11,3.14c-8.37,8.32-18.03,15.28-28.34,21.2c-2.62,1.4-5.16,2.99-7.87,4.25
		l-8.15,3.78c-5.48,2.46-11.1,4.5-16.81,6.09c-5.7,1.6-11.56,2.63-17.42,2.48c-5.67-0.18-11.4-1.69-16.31-5.29
		c1.83,0,3.68-0.21,5.49-0.65c2.39-0.65,4.7-1.66,6.85-2.98c5.67,1.26,11.94,0.27,17.41-2.14c5.97-2.52,11.21-6.4,15.94-10.65
		c9.38-8.66,17.03-18.79,23.28-29.87c3.72-6.52,6.75-13.46,9.14-20.63c6.17,0.86,12.21,1.97,18.08,3.56
		c3.83,1.02,7.6,2.18,11.24,3.6c2.14,0.85,4.35,1.76,6.43,2.72c-0.75,1.35-1.55,2.71-2.36,4
		C248.92,433.64,247.25,436.07,245.48,438.41z"/>
	<g>
		<path d="M363.32,380.81v57.81c0,1.14,0.05,2.55,0.17,4.25c0.11,1.7,0.42,3.37,0.94,5.02c0.51,1.64,1.27,3.06,2.3,4.25
			c1.02,1.19,2.44,1.78,4.25,1.78c5.55,0,9.63-6.18,12.24-18.53h6.29c-1.25,7.14-2.84,12.78-4.76,16.92
			c-1.93,4.14-3.97,7.28-6.12,9.44c-2.15,2.15-4.36,3.54-6.63,4.16c-2.27,0.62-4.31,0.94-6.12,0.94c-2.61,0-4.85-0.45-6.72-1.36
			c-1.87-0.91-3.46-2.1-4.76-3.57c-1.31-1.47-2.35-3.17-3.15-5.1c-0.79-1.92-1.42-3.96-1.87-6.12c-1.7,4.42-4.45,8.22-8.25,11.39
			c-3.8,3.18-8.42,4.76-13.86,4.76c-3.4,0-6.83-0.68-10.29-2.04c-3.46-1.36-6.58-3.59-9.35-6.71c-2.78-3.12-5.04-7.14-6.8-12.07
			c-1.76-4.93-2.64-10.97-2.64-18.11c0-5.21,0.6-10.66,1.79-16.32c1.19-5.67,3.09-10.83,5.7-15.48c2.61-4.65,5.95-8.5,10.03-11.56
			c4.08-3.06,9.01-4.59,14.79-4.59c1.36,0,2.81,0.14,4.34,0.41c1.53,0.28,3,0.75,4.42,1.42c1.41,0.67,2.75,1.59,3.99,2.76
			c1.25,1.17,2.27,2.59,3.06,4.25v-8H363.32z M331.52,453.92c1.7,0,3.43-0.48,5.19-1.45c1.76-0.97,3.34-2.27,4.76-3.92
			c1.42-1.64,2.58-3.61,3.49-5.88c0.91-2.27,1.36-4.71,1.36-7.33v-38.87c-0.79-1.81-2.01-3.49-3.65-5.02
			c-1.64-1.54-3.77-2.3-6.38-2.3c-3.63,0-6.75,1.22-9.35,3.67c-2.61,2.44-4.71,5.51-6.29,9.21c-1.59,3.69-2.75,7.73-3.49,12.1
			s-1.11,8.55-1.11,12.53c0,9.78,1.33,16.77,4,20.97C322.7,451.82,326.53,453.92,331.52,453.92z"/>
		<path d="M421.64,406.85c0.91-0.78,1.62-2.05,2.13-3.79c0.51-1.74,0.77-3.4,0.77-4.98c0-2.58-0.82-4.72-2.46-6.41
			c-1.64-1.69-3.94-2.53-6.89-2.53c-3.06,0-5.61,1.13-7.65,3.39c-2.04,2.26-3.69,5.11-4.93,8.56c-1.25,3.45-2.13,7.29-2.63,11.53
			c-0.51,4.24-0.77,8.4-0.77,12.46c0,5.99,0.54,10.86,1.62,14.59c1.07,3.73,2.52,6.64,4.34,8.73c1.81,2.09,3.94,3.53,6.38,4.32
			c2.44,0.79,5.02,1.19,7.74,1.19c6.01,0,11.08-1.5,15.22-4.51c4.14-3,7.68-7.68,10.63-14.03h5.78c-1.36,4.19-3.29,8.19-5.78,11.99
			c-2.5,3.8-5.39,7.14-8.67,10.03c-3.29,2.89-6.86,5.19-10.71,6.89c-3.85,1.7-7.88,2.55-12.07,2.55c-3.97,0-7.88-0.68-11.73-2.04
			c-3.86-1.36-7.31-3.59-10.37-6.71s-5.56-7.2-7.48-12.24c-1.93-5.04-2.89-11.25-2.89-18.62c0-4.76,0.42-9.89,1.27-15.39
			c0.85-5.5,2.44-10.6,4.76-15.3c2.32-4.7,5.53-8.64,9.61-11.82c4.08-3.17,9.35-4.76,15.81-4.76c7.14,0,12.58,1.73,16.32,5.19
			c3.74,3.46,5.61,8.53,5.61,15.22c0,2.84-0.54,5.22-1.62,7.14c-1.08,1.93-2.75,2.89-5.02,2.89
			C425.44,410.39,423.34,409.21,421.64,406.85z"/>
		<path d="M502.41,380.81v57.81c0,1.36,0.05,2.92,0.17,4.67c0.11,1.76,0.42,3.43,0.94,5.02c0.51,1.59,1.3,2.92,2.38,4
			c1.07,1.08,2.63,1.61,4.68,1.61c0.91,0,1.9-0.11,2.98-0.34c1.08-0.23,1.96-0.45,2.64-0.68c0.11,0.57,0.2,1.08,0.25,1.53
			c0.06,0.46,0.08,0.97,0.08,1.53c0,3.4-1.31,6.07-3.91,7.99c-2.61,1.93-5.56,2.89-8.84,2.89c-3.52,0-6.69-1.21-9.52-3.65
			c-2.83-2.44-4.76-6.55-5.78-12.33c-2.15,5.55-4.99,9.61-8.5,12.16c-3.52,2.55-7.2,3.82-11.05,3.82c-3.29,0-6.4-0.45-9.35-1.36
			c-2.95-0.91-5.5-2.41-7.65-4.51c-2.15-2.1-3.85-4.82-5.1-8.16c-1.25-3.34-1.87-7.45-1.87-12.33v-59.69h17.01v57.81
			c0,5.56,0.96,9.49,2.89,11.82c1.93,2.32,4.36,3.49,7.31,3.49c1.59,0,3.17-0.43,4.76-1.27c1.59-0.85,3-2.07,4.25-3.65
			c1.25-1.59,2.27-3.52,3.06-5.78c0.79-2.27,1.19-4.87,1.19-7.82v-54.58H502.41z"/>
		<path d="M583.34,354.28c-2.84,1.7-5.36,4.68-7.57,8.93c-2.21,4.25-4.05,9.15-5.53,14.71c-1.47,5.56-2.58,11.53-3.32,17.94
			c-0.74,6.4-1.11,12.56-1.11,18.45c0,2.04,0.05,4.25,0.17,6.63c0.11,2.38,0.34,4.85,0.68,7.4c0.34,2.55,0.79,5.05,1.36,7.48
			c0.57,2.44,1.36,4.73,2.38,6.89c2.72-0.91,5.33-1.53,7.82-1.87c2.49-0.34,4.53-0.51,6.12-0.51c3.29,0,6.21,0.51,8.76,1.53
			c2.55,1.02,4.96,2.33,7.23,3.91c3.74-5.33,6.43-12.33,8.08-21c1.64-8.68,2.47-17.88,2.47-27.63c0-10.88-0.91-19.73-2.72-26.53
			c-1.81-6.8-4.28-12.16-7.4-16.07c-3.12-3.91-6.77-6.57-10.97-7.99c-4.19-1.41-8.67-2.12-13.43-2.12c-5.67,0-11.06,0.79-16.15,2.38
			c-5.1,1.59-9.61,3.99-13.52,7.23c-3.91,3.23-7,7.23-9.27,11.99c-2.27,4.76-3.4,10.37-3.4,16.83c0,3.06,0.22,5.61,0.68,7.65
			c0.45,2.04,0.99,3.65,1.62,4.85c0.62,1.19,1.22,2.07,1.79,2.63c0.57,0.57,0.96,0.91,1.19,1.02c-6.12,0-10.94-1.59-14.45-4.76
			c-3.52-3.17-5.27-7.82-5.27-13.94c0-5.78,1.59-11.23,4.76-16.32c3.17-5.1,7.45-9.55,12.84-13.35c5.38-3.79,11.67-6.8,18.87-9.01
			c7.2-2.21,14.82-3.32,22.87-3.32c10.43,0,19.04,1.81,25.84,5.44c6.8,3.63,12.19,8.39,16.15,14.28c3.97,5.9,6.72,12.61,8.25,20.15
			c1.53,7.54,2.3,15.28,2.3,23.21c0,5.33-0.31,10.63-0.94,15.9c-0.63,5.27-1.67,10.37-3.15,15.3c-1.47,4.93-3.4,9.52-5.78,13.77
			c-2.38,4.25-5.33,7.91-8.84,10.97c1.7,1.7,3.46,3.37,5.27,5.02c1.81,1.64,3.74,3.09,5.78,4.33c2.04,1.25,4.22,2.24,6.55,2.98
			c2.32,0.74,4.9,1.11,7.74,1.11c0.91,0,1.67-0.03,2.3-0.08c0.62-0.06,1.21-0.14,1.78-0.26c-0.91,3.97-2.41,6.77-4.51,8.41
			s-4.96,2.47-8.58,2.47c-3.18,0-6.01-0.51-8.5-1.53c-2.5-1.02-4.73-2.38-6.72-4.08c-1.98-1.7-3.8-3.63-5.44-5.78
			c-1.64-2.16-3.2-4.36-4.67-6.63c-2.5,1.13-5.22,2.01-8.16,2.63c-2.95,0.62-6.12,0.94-9.52,0.94c-5.67,0-10.99-0.96-15.98-2.89
			c-4.99-1.93-9.35-5.1-13.09-9.52c-3.74-4.42-6.69-10.2-8.84-17.34c-2.15-7.14-3.23-15.92-3.23-26.36c0-6.46,0.51-13.09,1.53-19.89
			c1.02-6.8,2.66-13.01,4.93-18.62c2.27-5.61,5.3-10.23,9.1-13.86c3.8-3.62,8.53-5.44,14.2-5.44c1.24,0,2.61,0.08,4.08,0.25
			C580.23,353.34,581.76,353.71,583.34,354.28z M582.84,445.42c-1.25,0-2.72,0.17-4.42,0.51c-1.7,0.34-3.35,0.97-4.93,1.87
			c1.47,1.93,3.2,3.43,5.19,4.51c1.98,1.08,4.34,1.61,7.06,1.61c3.29,0,6.35-0.96,9.18-2.89c-1.59-1.7-3.37-3.06-5.36-4.08
			C587.57,445.93,585.32,445.42,582.84,445.42z"/>
		<path d="M644.05,356.32c0-3.06,1.08-5.72,3.23-7.99c2.15-2.26,4.82-3.4,7.99-3.4c3.06,0,5.72,1.14,7.99,3.4
			c2.26,2.27,3.4,4.93,3.4,7.99c0,3.18-1.14,5.84-3.4,7.99c-2.27,2.15-4.93,3.23-7.99,3.23c-3.18,0-5.84-1.08-7.99-3.23
			C645.13,362.16,644.05,359.49,644.05,356.32z M664.11,380.81v57.81c0,1.14,0.06,2.55,0.17,4.25c0.11,1.7,0.43,3.37,0.94,5.02
			c0.51,1.64,1.27,3.06,2.3,4.25c1.02,1.19,2.44,1.78,4.25,1.78c5.55,0,9.63-6.18,12.24-18.53h6.3c-1.25,7.14-2.84,12.78-4.76,16.92
			c-1.93,4.14-3.97,7.28-6.12,9.44c-2.15,2.15-4.36,3.54-6.63,4.16c-2.27,0.62-4.31,0.94-6.12,0.94c-3.97,0-7.2-0.77-9.69-2.29
			c-2.5-1.53-4.48-3.49-5.95-5.87c-1.47-2.38-2.5-5.04-3.06-7.99c-0.57-2.95-0.85-5.78-0.85-8.51v-61.38H664.11z"/>
		<path d="M684,349.18l16.84-2.38l0.17,40.3c1.93-1.93,4.19-3.51,6.8-4.76c2.61-1.25,5.72-1.87,9.35-1.87
			c3.06,0,6.23,0.54,9.52,1.61c3.29,1.08,6.35,2.98,9.18,5.7c2.83,2.72,5.16,6.46,6.97,11.23c1.81,4.76,2.72,10.83,2.72,18.19
			c0,6.46-0.77,12.7-2.29,18.7c-1.53,6.01-3.85,11.31-6.97,15.9c-3.12,4.59-7,8.25-11.65,10.96c-4.65,2.72-10.09,4.08-16.32,4.08
			c-3.51,0-6.77-0.54-9.78-1.61c-3-1.07-5.58-2.83-7.74-5.27c-2.15-2.43-3.85-5.67-5.1-9.69c-1.25-4.02-1.87-8.98-1.87-14.88
			L684,349.18z M730.43,421.1c0-4.42-0.4-8.56-1.2-12.41c-0.8-3.85-1.97-7.23-3.5-10.12c-1.54-2.89-3.42-5.16-5.65-6.8
			c-2.22-1.64-4.76-2.47-7.61-2.47c-2.28,0-4.39,0.54-6.33,1.61c-1.94,1.08-3.7,2.47-5.3,4.17v44.72c0,10.2,3.36,15.31,10.09,15.31
			c3.19,0,6.01-0.94,8.46-2.81c2.45-1.87,4.5-4.39,6.16-7.57c1.66-3.17,2.88-6.8,3.68-10.89
			C730.03,429.78,730.43,425.52,730.43,421.1z"/>
		<path d="M817.66,380.81v57.81c0,1.14,0.06,2.55,0.17,4.25c0.11,1.7,0.43,3.37,0.94,5.02c0.51,1.64,1.27,3.06,2.29,4.25
			c1.02,1.19,2.44,1.78,4.25,1.78c5.56,0,9.64-6.18,12.24-18.53h6.29c-1.25,7.14-2.83,12.78-4.76,16.92
			c-1.93,4.14-3.97,7.28-6.12,9.44c-2.15,2.15-4.36,3.54-6.63,4.16c-2.27,0.62-4.31,0.94-6.12,0.94c-2.61,0-4.85-0.45-6.72-1.36
			c-1.87-0.91-3.46-2.1-4.76-3.57c-1.31-1.47-2.35-3.17-3.15-5.1c-0.8-1.92-1.42-3.96-1.87-6.12c-1.7,4.42-4.45,8.22-8.25,11.39
			c-3.8,3.18-8.42,4.76-13.86,4.76c-3.4,0-6.83-0.68-10.29-2.04c-3.46-1.36-6.57-3.59-9.35-6.71c-2.78-3.12-5.05-7.14-6.8-12.07
			c-1.76-4.93-2.63-10.97-2.63-18.11c0-5.21,0.59-10.66,1.78-16.32s3.09-10.83,5.7-15.48c2.61-4.65,5.95-8.5,10.03-11.56
			c4.08-3.06,9.01-4.59,14.79-4.59c1.36,0,2.81,0.14,4.34,0.41c1.53,0.28,3,0.75,4.42,1.42c1.41,0.67,2.75,1.59,3.99,2.76
			c1.25,1.17,2.27,2.59,3.06,4.25v-8H817.66z M785.86,453.92c1.7,0,3.42-0.48,5.19-1.45c1.75-0.97,3.34-2.27,4.76-3.92
			c1.41-1.64,2.58-3.61,3.49-5.88c0.91-2.27,1.36-4.71,1.36-7.33v-38.87c-0.8-1.81-2.01-3.49-3.66-5.02
			c-1.64-1.54-3.77-2.3-6.37-2.3c-3.63,0-6.75,1.22-9.35,3.67c-2.61,2.44-4.7,5.51-6.29,9.21c-1.59,3.69-2.75,7.73-3.49,12.1
			c-0.74,4.38-1.11,8.55-1.11,12.53c0,9.78,1.33,16.77,4,20.97C777.04,451.82,780.87,453.92,785.86,453.92z"/>
		<path d="M854.56,346.8v91.82c0,1.14,0.06,2.55,0.17,4.25c0.11,1.7,0.43,3.37,0.94,5.02s1.27,3.06,2.3,4.25
			c1.02,1.19,2.44,1.78,4.25,1.78c5.55,0,9.63-6.18,12.24-18.53h6.3c-1.25,7.14-2.84,12.78-4.76,16.92
			c-1.93,4.14-3.97,7.28-6.12,9.44c-2.15,2.15-4.36,3.54-6.63,4.16c-2.27,0.62-4.31,0.94-6.12,0.94c-3.97,0-7.2-0.77-9.69-2.29
			c-2.5-1.53-4.48-3.49-5.95-5.87c-1.47-2.38-2.5-5.04-3.06-7.99c-0.57-2.95-0.85-5.78-0.85-8.51v-93.01L854.56,346.8z"/>
		<path d="M936.85,380.81v57.81c0,1.14,0.06,2.55,0.17,4.25c0.11,1.7,0.43,3.37,0.94,5.02s1.27,3.06,2.29,4.25
			c1.02,1.19,2.44,1.78,4.25,1.78c5.56,0,9.64-6.18,12.24-18.53h6.29c-1.25,7.14-2.83,12.78-4.76,16.92
			c-1.93,4.14-3.97,7.28-6.12,9.44c-2.15,2.15-4.36,3.54-6.63,4.16c-2.27,0.62-4.31,0.94-6.12,0.94c-2.61,0-4.85-0.45-6.72-1.36
			c-1.87-0.91-3.46-2.1-4.76-3.57c-1.31-1.47-2.35-3.17-3.15-5.1c-0.8-1.92-1.42-3.96-1.87-6.12c-1.7,4.42-4.45,8.22-8.25,11.39
			c-3.8,3.18-8.42,4.76-13.86,4.76c-3.4,0-6.83-0.68-10.29-2.04c-3.46-1.36-6.57-3.59-9.35-6.71c-2.78-3.12-5.05-7.14-6.8-12.07
			c-1.76-4.93-2.63-10.97-2.63-18.11c0-5.21,0.59-10.66,1.78-16.32s3.09-10.83,5.7-15.48c2.61-4.65,5.95-8.5,10.03-11.56
			c4.08-3.06,9.01-4.59,14.79-4.59c1.36,0,2.81,0.14,4.34,0.41c1.53,0.28,3,0.75,4.42,1.42c1.41,0.67,2.75,1.59,3.99,2.76
			c1.25,1.17,2.27,2.59,3.06,4.25v-8H936.85z M905.06,453.92c1.7,0,3.42-0.48,5.19-1.45c1.75-0.97,3.34-2.27,4.76-3.92
			c1.41-1.64,2.58-3.61,3.49-5.88c0.91-2.27,1.36-4.71,1.36-7.33v-38.87c-0.8-1.81-2.01-3.49-3.66-5.02
			c-1.64-1.54-3.77-2.3-6.37-2.3c-3.63,0-6.75,1.22-9.35,3.67c-2.61,2.44-4.7,5.51-6.29,9.21c-1.59,3.69-2.75,7.73-3.49,12.1
			c-0.74,4.38-1.11,8.55-1.11,12.53c0,9.78,1.33,16.77,4,20.97C896.24,451.82,900.07,453.92,905.06,453.92z"/>
		<path d="M973.58,380.81v12.92c1.7-3.06,3.43-5.53,5.19-7.4c1.75-1.87,3.54-3.26,5.36-4.16c1.81-0.91,3.54-1.5,5.19-1.79
			c1.64-0.28,3.2-0.42,4.68-0.42c5.1,0,9.21,0.96,12.33,2.89c3.12,1.93,5.47,4.39,7.06,7.4c1.58,3.01,2.64,6.29,3.15,9.86
			c0.51,3.57,0.77,7,0.77,10.29c0,2.04-0.06,4.28-0.17,6.72c-0.12,2.44-0.23,4.93-0.34,7.48c-0.12,2.55-0.23,5.1-0.34,7.65
			s-0.17,4.9-0.17,7.06c0,0.91,0.06,2.18,0.17,3.82c0.11,1.64,0.4,3.26,0.85,4.85c0.45,1.59,1.19,2.98,2.21,4.17
			c1.02,1.19,2.49,1.78,4.42,1.78c2.61,0,4.96-1.47,7.06-4.42c2.1-2.95,3.82-7.65,5.19-14.11h6.29c-1.25,7.14-2.84,12.78-4.76,16.92
			c-1.93,4.14-3.97,7.28-6.12,9.44c-2.16,2.15-4.31,3.54-6.46,4.16c-2.16,0.62-4.14,0.94-5.95,0.94c-3.63,0-6.69-0.71-9.18-2.12
			c-2.49-1.42-4.53-3.32-6.12-5.7c-1.59-2.38-2.75-5.16-3.49-8.33c-0.74-3.18-1.11-6.46-1.11-9.86c0-1.02,0.03-2.92,0.09-5.7
			c0.06-2.78,0.11-5.75,0.17-8.93c0.06-3.17,0.11-6.18,0.17-9.01c0.06-2.83,0.08-4.82,0.08-5.95c0-3.63-0.28-6.63-0.85-9.01
			c-0.57-2.38-1.36-4.25-2.38-5.61c-1.02-1.36-2.18-2.32-3.49-2.89c-1.31-0.57-2.7-0.85-4.17-0.85c-3.52,0-6.54,1.42-9.1,4.25
			c-2.55,2.83-4.62,7.6-6.2,14.28v54.41h-17v-85.02H973.58z"/>
		<path d="M1069.82,375.54c2.72,10.88,4.99,19.75,6.8,26.61c1.81,6.86,3.26,12.64,4.34,17.34c1.07,4.71,1.84,8.87,2.29,12.5
			c0.45,3.63,0.68,7.65,0.68,12.07c0,4.2-0.91,7.74-2.72,10.63c-1.81,2.89-4.08,5.24-6.8,7.06c-2.72,1.81-5.61,3.12-8.67,3.91
			c-3.06,0.79-5.78,1.19-8.16,1.19c-4.99,0-9.1-0.79-12.33-2.38c-3.23-1.58-5.81-3.6-7.74-6.03c-1.93-2.44-3.29-5.16-4.08-8.16
			c-0.8-3-1.19-5.87-1.19-8.59c0-2.95,0.6-5.53,1.78-7.74c1.19-2.21,2.64-3.77,4.34-4.68c2.95-8.5,5.83-16.92,8.67-25.25
			c2.83-8.33,4.7-16.69,5.61-25.08L1069.82,375.54z M1065.91,442.19c0-3.51-0.2-6.63-0.6-9.35c-0.4-2.72-0.99-5.72-1.78-9.01
			c-0.8-3.29-1.78-7.28-2.98-11.99c-1.19-4.7-2.58-10.74-4.16-18.11c-0.68,6.35-2.07,12.41-4.17,18.2
			c-2.1,5.78-3.99,11.73-5.7,17.85c1.02,0.68,1.9,1.62,2.64,2.81c0.74,1.19,1.11,2.75,1.11,4.68c0,2.15-0.57,3.8-1.7,4.93
			c-1.14,1.14-2.38,1.7-3.74,1.7c-1.81,0-3.35-0.79-4.59-2.38c0.91,3.97,2.49,7.06,4.76,9.27c2.27,2.21,5.27,3.32,9.01,3.32
			c3.63,0,6.52-0.94,8.68-2.81C1064.83,449.42,1065.91,446.39,1065.91,442.19z"/>
	</g>
	<g>
		<path d="M661.82,152.55c-7.64-0.16-14.2,6.36-14.15,14.04c0.06,7.64,6.22,13.74,13.92,13.75c7.69,0,13.86-6.08,13.94-13.73
			C675.62,159.1,669.37,152.7,661.82,152.55z"/>
		<path d="M661.31,4.45c-60.18,0-109.13,48.96-109.13,109.13c0,60.17,48.95,109.13,109.13,109.13s109.13-48.96,109.13-109.13
			C770.44,53.41,721.48,4.45,661.31,4.45z M661.64,45.59c7.55,0.15,13.8,6.55,13.72,14.06c-0.08,7.65-6.25,13.73-13.95,13.73
			c-7.7-0.01-13.87-6.11-13.92-13.75C647.44,51.95,654,45.43,661.64,45.59z M559.9,113.58c0-45.04,29.53-83.3,70.23-96.49
			c-14.66,10.73-22.96,28.33-21.36,47.61c1.96,23.63,20.9,43.51,45.03,47.05c5.36,0.78,10.84,0.67,16.2,1.43
			c24.39,3.49,43.74,25.29,44.39,49.82c0.56,20.99-10.58,39.67-27.75,48.78c-8.1,2.09-16.59,3.2-25.33,3.2
			C605.39,214.99,559.9,169.5,559.9,113.58z"/>
	</g>
	<g>
		<path class="st1" d="M623.66,224.29l63.45,12.25c1.66-0.97,3.38-1.96,5.09-2.95l-79.59-15.37l-98.94-54.31l-0.93,1.69l1.86-3.39
			l-81.12-44.53c0.08-0.34,0.21-0.66,0.26-1.01c1.23-7.35-3.75-14.33-11.11-15.56c-7.36-1.23-14.33,3.75-15.56,11.11
			c-0.59,3.56,0.23,7.14,2.33,10.08c2.1,2.94,5.21,4.89,8.77,5.48c0.75,0.12,1.5,0.19,2.23,0.19c3.47,0,6.69-1.37,9.14-3.63
			L510.88,169l0.93-1.69l88.41,48.53L462.8,189.29l0.42-1.88l-102.76-23.09c0.2-1.82,0.05-3.68-0.51-5.48
			c-1.07-3.45-3.42-6.27-6.61-7.96c-6.6-3.48-14.79-0.93-18.26,5.66c-3.47,6.6-0.93,14.79,5.66,18.26c1.97,1.04,4.12,1.56,6.28,1.56
			c1.34,0,2.7-0.2,4.02-0.61c3.45-1.07,6.27-3.42,7.96-6.61c0.26-0.5,0.43-1.02,0.63-1.54l-0.95,4.24l102.85,23.11l0.85-3.77
			l-0.37,1.9l149.27,28.83l52.23,28.67c1.24-0.73,2.56-1.53,3.85-2.29L623.66,224.29z"/>
		<path d="M850,199.73c-9.19-2.85-18.77-4.11-28.58-4.11c-39.45,0-82.48,20.43-117.6,40.23c-1.74,0.98-3.46,1.96-5.16,2.94
			c-8.38,4.81-16.25,9.51-23.45,13.81c-1.3,0.78-2.59,1.54-3.85,2.29c-3.09,1.84-6.07,3.61-8.87,5.24
			c-20.55-13.13-41.82-24.93-63.27-31.59c-7.54-2.34-15.16-3.4-22.67-3.4c-34.63,0-67,22.5-79.59,45.52
			c-8.26,15.12-5.55,29.48,9.69,34.21c2.47,0.77,5.1,1.09,7.73,1.09c9.98,0,19.94-4.6,21.09-6.71c0.48-0.89,0.17-1.51-0.96-1.86
			c-1.69-0.52-8.8,0.39-17.26-2.24c-10.16-3.15-17.72-12.26-12.13-22.48c10.09-18.45,33.31-27.03,55.86-27.03
			c8.44,0,16.79,1.2,24.32,3.54c18.63,5.78,36.52,16.53,54.48,28.34c-26.92,14.64-86.56,38.98-134.25,38.98
			c-10.57,0-20.56-1.2-29.47-3.96c-23.14-7.18-37.96-21.13-30.42-34.92c1.22-2.22,1.14-3.29,0.01-3.64c-0.22-0.07-0.45-0.1-0.7-0.1
			c-2.26,0-5.41,2.82-7.39,6.44c-12.4,22.67,2.96,44.08,30.06,52.48c8.65,2.68,17.96,3.86,27.68,3.86
			c54.33,0,121.13-36.88,152.86-53.94c28.19,19.67,57.11,41.64,90.41,51.97c15.54,4.82,30.17,6.94,43.78,6.94
			c51.65,0,88.6-30.52,104.57-59.72C902.73,253.01,896.85,214.26,850,199.73z M873.7,281.97c-12.09,22.11-43.05,39.88-79.94,39.88
			c-11.33,0-23.22-1.68-35.29-5.42c-27.09-8.4-56.25-29.93-86.38-49.68c3.06-1.96,6.4-3.99,9.86-6.05c1.28-0.76,2.52-1.52,3.85-2.29
			c9.26-5.37,19.7-10.91,30.82-16.16c1.99-0.94,4-1.85,6.03-2.77c28.81-12.97,61.68-23.43,91.49-23.43c10.45,0,20.54,1.29,29.92,4.2
			C874.54,229.71,887.55,256.62,873.7,281.97z"/>
	</g>
</g>
</svg>
